# xmcd
#
# Track frame offsets:
#  150
#  15293
#  34846
#  54339
#  76267
#  90817
#  108893
#  133550
#  158485
#  176796
#  195385
#  212007
#  232469
#  253582
#
# Disc length: 3575 seconds
#
# Revision: 0
# Processed by: cddbd v1.5.2PL0 Copyright (c) Steve Scherf et al.
# Submitted via: AltoMP3_Maker 3.0
#
DISCID=a40df50e
DTITLE=Daniel Boaventura - Songs 4 u
DYEAR=1900
DGENRE=
TTITLE0=Fly me to the moon (In other words)
TTITLE1=I loved you
TTITLE2=Wake up call
TTITLE3=The captain of her heart
TTITLE4=The windmills of your mind (themse from the Thomas Crown affair)
TTITLE5=You'are so vain
TTITLE6=Sohg for you
TTITLE7=This Masquerade
TTITLE8=If
TTITLE9=Baby, now that I've found you
TTITLE10=Your Smiling
TTITLE11=Send in the Clowns
TTITLE12=Hello, Detroit
TTITLE13=I'm in the mood for love (bônus)
EXTD=
EXTT0=
EXTT1=
EXTT2=
EXTT3=
EXTT4=
EXTT5=
EXTT6=
EXTT7=
EXTT8=
EXTT9=
EXTT10=
EXTT11=
EXTT12=
EXTT13=
PLAYORDER=
